<svg width="25" height="24" viewBox="0 0 25 24" fill="none" xmlns="http://www.w3.org/2000/svg">
<path d="M18.4786 5.01699H6.81163C4.52163 5.01699 2.66663 6.85199 2.66663 9.11599V14.884C2.66663 17.148 4.52263 18.984 6.81163 18.984H18.4786C20.7686 18.984 22.6236 17.148 22.6236 14.884V9.11599C22.6236 6.85199 20.7676 5.01599 18.4786 5.01599V5.01699ZM15.6756 12.28L10.2186 14.855C10.1853 14.871 10.1485 14.8784 10.1117 14.8763C10.0748 14.8743 10.039 14.863 10.0077 14.8434C9.97632 14.8239 9.95044 14.7967 9.93243 14.7645C9.91441 14.7322 9.90485 14.6959 9.90463 14.659V9.34999C9.90529 9.31286 9.91535 9.27651 9.93385 9.24432C9.95235 9.21212 9.9787 9.18513 10.0104 9.16587C10.0422 9.1466 10.0783 9.13568 10.1154 9.13413C10.1525 9.13258 10.1894 9.14044 10.2226 9.15699L15.6806 11.892C15.717 11.9101 15.7475 11.9381 15.7686 11.9728C15.7898 12.0075 15.8007 12.0474 15.8002 12.0881C15.7997 12.1287 15.7877 12.1683 15.7657 12.2025C15.7436 12.2366 15.7124 12.2638 15.6756 12.281V12.28Z" fill="#E2E8F0"/>
</svg>
